<mxfile host="app.diagrams.net" agent="Mozilla/5.0 (Windows NT 10.0; Win64; x64) AppleWebKit/537.36 (KHTML, like Gecko) Chrome/134.0.0.0 YaBrowser/25.4.0.0 Safari/537.36" version="27.0.6">
  <diagram id="C5RBs43oDa-KdzZeNtuy" name="Page-1">
    <mxGraphModel dx="894" dy="419" grid="1" gridSize="10" guides="1" tooltips="1" connect="1" arrows="1" fold="1" page="1" pageScale="1" pageWidth="827" pageHeight="1169" math="0" shadow="0">
      <root>
        <mxCell id="WIyWlLk6GJQsqaUBKTNV-0" />
        <mxCell id="WIyWlLk6GJQsqaUBKTNV-1" parent="WIyWlLk6GJQsqaUBKTNV-0" />
        <mxCell id="TsyOA3JNA3Ic3AeVn1yb-0" value="Medication_t" style="swimlane;fontStyle=0;childLayout=stackLayout;horizontal=1;startSize=26;fillColor=none;horizontalStack=0;resizeParent=1;resizeParentMax=0;resizeLast=0;collapsible=1;marginBottom=0;whiteSpace=wrap;html=1;" vertex="1" parent="WIyWlLk6GJQsqaUBKTNV-1">
          <mxGeometry x="340" y="200" width="150" height="238" as="geometry" />
        </mxCell>
        <mxCell id="TsyOA3JNA3Ic3AeVn1yb-5" value="+ id: int" style="text;strokeColor=none;fillColor=none;align=left;verticalAlign=top;spacingLeft=4;spacingRight=4;overflow=hidden;rotatable=0;points=[[0,0.5],[1,0.5]];portConstraint=eastwest;whiteSpace=wrap;html=1;" vertex="1" parent="TsyOA3JNA3Ic3AeVn1yb-0">
          <mxGeometry y="26" width="150" height="26" as="geometry" />
        </mxCell>
        <mxCell id="TsyOA3JNA3Ic3AeVn1yb-6" value="+ Name: string" style="text;strokeColor=none;fillColor=none;align=left;verticalAlign=top;spacingLeft=4;spacingRight=4;overflow=hidden;rotatable=0;points=[[0,0.5],[1,0.5]];portConstraint=eastwest;whiteSpace=wrap;html=1;" vertex="1" parent="TsyOA3JNA3Ic3AeVn1yb-0">
          <mxGeometry y="52" width="150" height="26" as="geometry" />
        </mxCell>
        <mxCell id="TsyOA3JNA3Ic3AeVn1yb-7" value="+ Country_id: int" style="text;strokeColor=none;fillColor=none;align=left;verticalAlign=top;spacingLeft=4;spacingRight=4;overflow=hidden;rotatable=0;points=[[0,0.5],[1,0.5]];portConstraint=eastwest;whiteSpace=wrap;html=1;" vertex="1" parent="TsyOA3JNA3Ic3AeVn1yb-0">
          <mxGeometry y="78" width="150" height="26" as="geometry" />
        </mxCell>
        <mxCell id="TsyOA3JNA3Ic3AeVn1yb-8" value="+ FormType_id: int" style="text;strokeColor=none;fillColor=none;align=left;verticalAlign=top;spacingLeft=4;spacingRight=4;overflow=hidden;rotatable=0;points=[[0,0.5],[1,0.5]];portConstraint=eastwest;whiteSpace=wrap;html=1;" vertex="1" parent="TsyOA3JNA3Ic3AeVn1yb-0">
          <mxGeometry y="104" width="150" height="26" as="geometry" />
        </mxCell>
        <mxCell id="TsyOA3JNA3Ic3AeVn1yb-9" value="+ Price: int" style="text;strokeColor=none;fillColor=none;align=left;verticalAlign=top;spacingLeft=4;spacingRight=4;overflow=hidden;rotatable=0;points=[[0,0.5],[1,0.5]];portConstraint=eastwest;whiteSpace=wrap;html=1;" vertex="1" parent="TsyOA3JNA3Ic3AeVn1yb-0">
          <mxGeometry y="130" width="150" height="26" as="geometry" />
        </mxCell>
        <mxCell id="TsyOA3JNA3Ic3AeVn1yb-10" value="+ DosageType_id: int" style="text;strokeColor=none;fillColor=none;align=left;verticalAlign=top;spacingLeft=4;spacingRight=4;overflow=hidden;rotatable=0;points=[[0,0.5],[1,0.5]];portConstraint=eastwest;whiteSpace=wrap;html=1;" vertex="1" parent="TsyOA3JNA3Ic3AeVn1yb-0">
          <mxGeometry y="156" width="150" height="26" as="geometry" />
        </mxCell>
        <mxCell id="TsyOA3JNA3Ic3AeVn1yb-11" value="+ DosageValue: int" style="text;strokeColor=none;fillColor=none;align=left;verticalAlign=top;spacingLeft=4;spacingRight=4;overflow=hidden;rotatable=0;points=[[0,0.5],[1,0.5]];portConstraint=eastwest;whiteSpace=wrap;html=1;" vertex="1" parent="TsyOA3JNA3Ic3AeVn1yb-0">
          <mxGeometry y="182" width="150" height="26" as="geometry" />
        </mxCell>
        <mxCell id="TsyOA3JNA3Ic3AeVn1yb-12" value="+ image: int" style="text;strokeColor=none;fillColor=none;align=left;verticalAlign=top;spacingLeft=4;spacingRight=4;overflow=hidden;rotatable=0;points=[[0,0.5],[1,0.5]];portConstraint=eastwest;whiteSpace=wrap;html=1;" vertex="1" parent="TsyOA3JNA3Ic3AeVn1yb-0">
          <mxGeometry y="208" width="150" height="30" as="geometry" />
        </mxCell>
        <mxCell id="TsyOA3JNA3Ic3AeVn1yb-13" value="ProdusingCountry_t" style="swimlane;fontStyle=0;childLayout=stackLayout;horizontal=1;startSize=26;fillColor=none;horizontalStack=0;resizeParent=1;resizeParentMax=0;resizeLast=0;collapsible=1;marginBottom=0;whiteSpace=wrap;html=1;" vertex="1" parent="WIyWlLk6GJQsqaUBKTNV-1">
          <mxGeometry x="560" y="150" width="140" height="78" as="geometry" />
        </mxCell>
        <mxCell id="TsyOA3JNA3Ic3AeVn1yb-14" value="+ id: int" style="text;strokeColor=none;fillColor=none;align=left;verticalAlign=top;spacingLeft=4;spacingRight=4;overflow=hidden;rotatable=0;points=[[0,0.5],[1,0.5]];portConstraint=eastwest;whiteSpace=wrap;html=1;" vertex="1" parent="TsyOA3JNA3Ic3AeVn1yb-13">
          <mxGeometry y="26" width="140" height="26" as="geometry" />
        </mxCell>
        <mxCell id="TsyOA3JNA3Ic3AeVn1yb-15" value="+ Name: string" style="text;strokeColor=none;fillColor=none;align=left;verticalAlign=top;spacingLeft=4;spacingRight=4;overflow=hidden;rotatable=0;points=[[0,0.5],[1,0.5]];portConstraint=eastwest;whiteSpace=wrap;html=1;" vertex="1" parent="TsyOA3JNA3Ic3AeVn1yb-13">
          <mxGeometry y="52" width="140" height="26" as="geometry" />
        </mxCell>
        <mxCell id="TsyOA3JNA3Ic3AeVn1yb-17" value="FormType_t" style="swimlane;fontStyle=0;childLayout=stackLayout;horizontal=1;startSize=26;fillColor=none;horizontalStack=0;resizeParent=1;resizeParentMax=0;resizeLast=0;collapsible=1;marginBottom=0;whiteSpace=wrap;html=1;" vertex="1" parent="WIyWlLk6GJQsqaUBKTNV-1">
          <mxGeometry x="560" y="280" width="140" height="78" as="geometry" />
        </mxCell>
        <mxCell id="TsyOA3JNA3Ic3AeVn1yb-18" value="+ id: int" style="text;strokeColor=none;fillColor=none;align=left;verticalAlign=top;spacingLeft=4;spacingRight=4;overflow=hidden;rotatable=0;points=[[0,0.5],[1,0.5]];portConstraint=eastwest;whiteSpace=wrap;html=1;" vertex="1" parent="TsyOA3JNA3Ic3AeVn1yb-17">
          <mxGeometry y="26" width="140" height="26" as="geometry" />
        </mxCell>
        <mxCell id="TsyOA3JNA3Ic3AeVn1yb-19" value="+ Description: string" style="text;strokeColor=none;fillColor=none;align=left;verticalAlign=top;spacingLeft=4;spacingRight=4;overflow=hidden;rotatable=0;points=[[0,0.5],[1,0.5]];portConstraint=eastwest;whiteSpace=wrap;html=1;" vertex="1" parent="TsyOA3JNA3Ic3AeVn1yb-17">
          <mxGeometry y="52" width="140" height="26" as="geometry" />
        </mxCell>
        <mxCell id="TsyOA3JNA3Ic3AeVn1yb-23" value="DosageType_t" style="swimlane;fontStyle=0;childLayout=stackLayout;horizontal=1;startSize=26;fillColor=none;horizontalStack=0;resizeParent=1;resizeParentMax=0;resizeLast=0;collapsible=1;marginBottom=0;whiteSpace=wrap;html=1;" vertex="1" parent="WIyWlLk6GJQsqaUBKTNV-1">
          <mxGeometry x="560" y="410" width="140" height="78" as="geometry" />
        </mxCell>
        <mxCell id="TsyOA3JNA3Ic3AeVn1yb-24" value="+ id: int" style="text;strokeColor=none;fillColor=none;align=left;verticalAlign=top;spacingLeft=4;spacingRight=4;overflow=hidden;rotatable=0;points=[[0,0.5],[1,0.5]];portConstraint=eastwest;whiteSpace=wrap;html=1;" vertex="1" parent="TsyOA3JNA3Ic3AeVn1yb-23">
          <mxGeometry y="26" width="140" height="26" as="geometry" />
        </mxCell>
        <mxCell id="TsyOA3JNA3Ic3AeVn1yb-25" value="+ Description: string" style="text;strokeColor=none;fillColor=none;align=left;verticalAlign=top;spacingLeft=4;spacingRight=4;overflow=hidden;rotatable=0;points=[[0,0.5],[1,0.5]];portConstraint=eastwest;whiteSpace=wrap;html=1;" vertex="1" parent="TsyOA3JNA3Ic3AeVn1yb-23">
          <mxGeometry y="52" width="140" height="26" as="geometry" />
        </mxCell>
        <mxCell id="TsyOA3JNA3Ic3AeVn1yb-26" value="ActiveSubstance_t" style="swimlane;fontStyle=0;childLayout=stackLayout;horizontal=1;startSize=26;fillColor=none;horizontalStack=0;resizeParent=1;resizeParentMax=0;resizeLast=0;collapsible=1;marginBottom=0;whiteSpace=wrap;html=1;" vertex="1" parent="WIyWlLk6GJQsqaUBKTNV-1">
          <mxGeometry x="120" y="310" width="140" height="78" as="geometry" />
        </mxCell>
        <mxCell id="TsyOA3JNA3Ic3AeVn1yb-27" value="+ id: int" style="text;strokeColor=none;fillColor=none;align=left;verticalAlign=top;spacingLeft=4;spacingRight=4;overflow=hidden;rotatable=0;points=[[0,0.5],[1,0.5]];portConstraint=eastwest;whiteSpace=wrap;html=1;" vertex="1" parent="TsyOA3JNA3Ic3AeVn1yb-26">
          <mxGeometry y="26" width="140" height="26" as="geometry" />
        </mxCell>
        <mxCell id="TsyOA3JNA3Ic3AeVn1yb-28" value="+ Name: string" style="text;strokeColor=none;fillColor=none;align=left;verticalAlign=top;spacingLeft=4;spacingRight=4;overflow=hidden;rotatable=0;points=[[0,0.5],[1,0.5]];portConstraint=eastwest;whiteSpace=wrap;html=1;" vertex="1" parent="TsyOA3JNA3Ic3AeVn1yb-26">
          <mxGeometry y="52" width="140" height="26" as="geometry" />
        </mxCell>
        <mxCell id="TsyOA3JNA3Ic3AeVn1yb-29" value="MedicationActiveSubstaince_t" style="swimlane;fontStyle=0;childLayout=stackLayout;horizontal=1;startSize=26;fillColor=none;horizontalStack=0;resizeParent=1;resizeParentMax=0;resizeLast=0;collapsible=1;marginBottom=0;whiteSpace=wrap;html=1;" vertex="1" parent="WIyWlLk6GJQsqaUBKTNV-1">
          <mxGeometry x="100" y="150" width="180" height="110" as="geometry" />
        </mxCell>
        <mxCell id="TsyOA3JNA3Ic3AeVn1yb-30" value="+ id: int" style="text;strokeColor=none;fillColor=none;align=left;verticalAlign=top;spacingLeft=4;spacingRight=4;overflow=hidden;rotatable=0;points=[[0,0.5],[1,0.5]];portConstraint=eastwest;whiteSpace=wrap;html=1;" vertex="1" parent="TsyOA3JNA3Ic3AeVn1yb-29">
          <mxGeometry y="26" width="180" height="26" as="geometry" />
        </mxCell>
        <mxCell id="TsyOA3JNA3Ic3AeVn1yb-31" value="+ Substance_id: int" style="text;strokeColor=none;fillColor=none;align=left;verticalAlign=top;spacingLeft=4;spacingRight=4;overflow=hidden;rotatable=0;points=[[0,0.5],[1,0.5]];portConstraint=eastwest;whiteSpace=wrap;html=1;" vertex="1" parent="TsyOA3JNA3Ic3AeVn1yb-29">
          <mxGeometry y="52" width="180" height="28" as="geometry" />
        </mxCell>
        <mxCell id="TsyOA3JNA3Ic3AeVn1yb-33" value="+ Medication_id: int" style="text;strokeColor=none;fillColor=none;align=left;verticalAlign=top;spacingLeft=4;spacingRight=4;overflow=hidden;rotatable=0;points=[[0,0.5],[1,0.5]];portConstraint=eastwest;whiteSpace=wrap;html=1;" vertex="1" parent="TsyOA3JNA3Ic3AeVn1yb-29">
          <mxGeometry y="80" width="180" height="30" as="geometry" />
        </mxCell>
        <mxCell id="TsyOA3JNA3Ic3AeVn1yb-34" value="" style="endArrow=classic;html=1;rounded=0;exitX=0;exitY=0.5;exitDx=0;exitDy=0;" edge="1" parent="WIyWlLk6GJQsqaUBKTNV-1" source="TsyOA3JNA3Ic3AeVn1yb-31">
          <mxGeometry width="50" height="50" relative="1" as="geometry">
            <mxPoint x="390" y="300" as="sourcePoint" />
            <mxPoint x="121" y="360" as="targetPoint" />
            <Array as="points">
              <mxPoint x="60" y="216" />
              <mxPoint x="60" y="360" />
            </Array>
          </mxGeometry>
        </mxCell>
        <mxCell id="TsyOA3JNA3Ic3AeVn1yb-35" value="" style="endArrow=classic;html=1;rounded=0;" edge="1" parent="WIyWlLk6GJQsqaUBKTNV-1">
          <mxGeometry width="50" height="50" relative="1" as="geometry">
            <mxPoint x="280" y="240" as="sourcePoint" />
            <mxPoint x="340" y="240" as="targetPoint" />
          </mxGeometry>
        </mxCell>
        <mxCell id="TsyOA3JNA3Ic3AeVn1yb-36" value="" style="endArrow=classic;html=1;rounded=0;exitX=1;exitY=0.577;exitDx=0;exitDy=0;entryX=0;entryY=0.5;entryDx=0;entryDy=0;exitPerimeter=0;" edge="1" parent="WIyWlLk6GJQsqaUBKTNV-1" source="TsyOA3JNA3Ic3AeVn1yb-8" target="TsyOA3JNA3Ic3AeVn1yb-18">
          <mxGeometry width="50" height="50" relative="1" as="geometry">
            <mxPoint x="450" y="370" as="sourcePoint" />
            <mxPoint x="510" y="360" as="targetPoint" />
          </mxGeometry>
        </mxCell>
        <mxCell id="TsyOA3JNA3Ic3AeVn1yb-37" value="" style="endArrow=classic;html=1;rounded=0;exitX=1;exitY=0.5;exitDx=0;exitDy=0;" edge="1" parent="WIyWlLk6GJQsqaUBKTNV-1" source="TsyOA3JNA3Ic3AeVn1yb-10">
          <mxGeometry width="50" height="50" relative="1" as="geometry">
            <mxPoint x="540" y="400" as="sourcePoint" />
            <mxPoint x="560" y="450" as="targetPoint" />
            <Array as="points">
              <mxPoint x="490" y="450" />
            </Array>
          </mxGeometry>
        </mxCell>
        <mxCell id="TsyOA3JNA3Ic3AeVn1yb-38" value="" style="endArrow=classic;html=1;rounded=0;exitX=1;exitY=0.5;exitDx=0;exitDy=0;" edge="1" parent="WIyWlLk6GJQsqaUBKTNV-1" source="TsyOA3JNA3Ic3AeVn1yb-7">
          <mxGeometry width="50" height="50" relative="1" as="geometry">
            <mxPoint x="540" y="240" as="sourcePoint" />
            <mxPoint x="560" y="190" as="targetPoint" />
            <Array as="points">
              <mxPoint x="490" y="190" />
            </Array>
          </mxGeometry>
        </mxCell>
      </root>
    </mxGraphModel>
  </diagram>
</mxfile>
